ply
format ascii 1.0
comment Created by Blender 2.82 (sub 7) - www.blender.org, source file: ''
element vertex 108
property float x
property float y
property float z
property float nx
property float ny
property float nz
element face 212
property list uchar uint vertex_indices
end_header
-0.001739 -0.039668 -0.054546 0.528123 -0.848933 0.019684
0.013954 -0.022209 -0.031626 0.792047 -0.608051 -0.053774
0.005348 -0.028995 -0.014400 0.354991 -0.922513 0.151372
0.012306 -0.015779 -0.065169 0.899655 -0.382214 -0.210852
0.013890 -0.006419 -0.081497 0.868099 -0.331187 -0.369701
-0.017993 -0.014781 -0.007962 -0.983551 -0.099368 0.150700
-0.008770 -0.025943 -0.007561 -0.429670 -0.866909 0.252602
-0.020158 -0.011735 0.021208 -0.961577 -0.198370 -0.189611
-0.032570 0.030139 0.082618 -0.445112 0.797296 0.407605
-0.038688 -0.022197 0.087131 -0.597186 -0.602222 0.529771
0.007069 -0.010561 0.093455 0.500656 -0.344371 0.794153
0.000880 0.022807 0.023140 -0.084078 0.996399 0.009705
0.002517 0.024875 0.046870 0.167547 0.981231 -0.095218
0.013805 0.019492 0.029704 0.549272 0.827143 0.118748
-0.017556 -0.000357 0.013253 -0.933866 0.273690 -0.230140
-0.048733 0.012165 0.083034 -0.873104 0.296854 0.386700
-0.025801 0.012525 0.046423 -0.752281 0.492050 -0.438093
-0.022407 -0.028226 0.089614 -0.125584 -0.776574 0.617359
0.003610 -0.025514 0.017457 0.233650 -0.968322 0.087802
-0.003721 -0.021278 0.092847 0.250526 -0.554247 0.793725
-0.046043 -0.012169 0.085472 -0.845820 -0.259865 0.465835
-0.010918 -0.023411 0.026560 -0.407392 -0.911832 -0.050478
0.019463 -0.017051 0.008928 0.734245 -0.666982 0.126347
0.014737 0.008354 0.092107 0.675893 0.073977 0.733268
0.009218 0.037618 -0.028712 0.527512 0.796350 0.295816
0.000856 0.046744 -0.037306 0.286325 0.881893 0.374493
-0.010988 0.041315 -0.034200 -0.587634 0.628773 0.509201
-0.014298 0.001026 -0.027932 -0.983276 0.181371 0.015107
-0.008611 0.008546 -0.006312 -0.918851 0.380108 0.105686
-0.017192 0.023374 -0.027446 -0.961486 0.157994 0.224830
0.010240 0.025613 -0.056119 0.476058 0.725059 -0.497604
0.000034 0.021779 -0.091614 -0.515519 0.856258 0.032044
-0.002770 0.023848 -0.063059 -0.533921 0.804498 -0.260109
0.006230 0.041283 -0.045342 0.746971 0.614368 -0.254036
0.020910 0.021107 -0.027858 0.905606 0.423292 -0.025788
0.019093 0.017610 -0.053975 0.906674 0.381176 -0.180578
0.028364 0.001332 0.004851 0.996948 -0.018983 0.075320
0.019773 0.010074 0.037955 0.906339 0.388562 0.165868
0.014891 -0.003110 0.072964 0.941404 -0.302622 0.148747
0.020042 0.005725 -0.058769 0.987915 -0.036866 -0.150456
0.001356 -0.016288 -0.082619 0.737724 -0.402722 -0.541795
-0.009903 -0.014912 -0.123937 0.246651 -0.960631 -0.127689
-0.000257 -0.009208 -0.115649 0.884671 -0.287149 -0.367199
-0.003516 0.016474 -0.089331 -0.981384 0.161290 -0.103977
-0.009815 0.011610 -0.074988 -0.947020 0.301248 -0.111179
-0.020262 -0.028629 -0.023688 -0.732963 -0.593951 0.331523
-0.012444 -0.044916 -0.069685 -0.061464 -0.971160 0.230262
-0.011732 -0.036286 -0.031199 -0.199408 -0.941343 0.272195
-0.010859 -0.013562 -0.082238 -0.841426 0.049440 -0.538072
-0.012870 -0.004908 -0.073060 -0.961669 0.252358 -0.107028
-0.007979 -0.004078 -0.092494 -0.941649 0.331156 -0.059816
-0.015923 -0.011131 -0.142920 0.331980 -0.366131 -0.869289
-0.003623 -0.002625 -0.119094 0.658284 0.661580 -0.359020
-0.004594 0.006287 -0.085353 -0.763848 0.165471 -0.623768
-0.002218 0.039550 -0.054505 0.508530 -0.104862 -0.854610
-0.007517 0.026869 -0.054559 -0.631581 0.127110 -0.764794
-0.024573 0.053539 -0.070563 -0.970092 -0.097873 -0.222083
-0.015049 0.034326 -0.045513 -0.987945 -0.111789 -0.106845
-0.010741 0.037107 -0.055811 -0.263619 -0.651723 -0.711142
-0.019291 0.050424 -0.077061 -0.330638 -0.567217 -0.754234
-0.025817 -0.019194 -0.032567 -0.996521 0.082034 -0.012635
-0.011267 -0.005006 -0.045467 -0.938200 0.281106 -0.201849
-0.021559 -0.028869 -0.057325 -0.994385 0.048982 -0.093722
0.007210 0.002437 -0.087851 0.621570 0.271371 -0.734825
0.015361 0.014148 -0.080567 0.905972 0.256050 -0.337046
0.001446 0.015190 -0.120938 0.872433 -0.192236 -0.449263
0.003046 0.007438 -0.091195 -0.019105 -0.820368 -0.571490
-0.008561 0.002079 -0.061622 -0.969115 0.244209 0.033998
-0.018746 -0.021587 -0.067747 -0.967956 0.172460 -0.182440
-0.013639 -0.047961 -0.089277 0.722160 -0.615833 -0.314951
-0.005658 -0.032245 -0.074523 0.595965 -0.693625 -0.404584
0.007693 -0.025505 -0.070747 0.822382 -0.472152 -0.317331
-0.018852 -0.042395 -0.072546 -0.880367 -0.397412 0.258797
-0.027990 -0.047150 -0.108602 -0.038331 0.224158 -0.973785
-0.017250 -0.035818 -0.078059 -0.658773 0.704581 -0.263741
0.011991 0.018945 0.090034 0.578722 0.491897 0.650441
-0.022171 -0.038771 -0.127714 0.288675 -0.803217 -0.521012
-0.014608 -0.027047 -0.082735 -0.969176 -0.244911 -0.026521
-0.006850 -0.010998 -0.092980 -0.822748 -0.568316 0.009857
-0.008231 -0.032571 -0.107689 0.841548 -0.398297 -0.364818
-0.020750 -0.015148 0.031265 -0.846095 -0.480758 -0.230049
-0.017610 -0.001877 -0.139513 0.089938 0.842494 -0.531083
0.001634 0.028514 0.087105 0.243934 0.792505 0.558916
-0.013268 0.019245 0.036975 -0.485794 0.831263 -0.270089
0.001202 0.021475 -0.113616 0.572649 0.793207 -0.207007
-0.015453 0.006929 0.016888 -0.829463 0.484970 -0.277047
-0.031822 -0.035626 -0.128108 -0.893948 -0.259651 -0.365246
-0.009244 -0.018612 -0.086432 -0.484207 0.783532 -0.389355
-0.024209 -0.028651 -0.130401 -0.004913 0.607929 -0.793939
0.001356 0.022333 -0.000779 -0.488662 0.846217 0.212256
-0.019949 0.016274 -0.136305 -0.914060 -0.116398 -0.388501
-0.022413 0.056535 -0.061711 -0.686605 0.599536 0.411176
-0.014359 0.060520 -0.075556 0.461654 0.789911 -0.403546
-0.009499 0.052410 -0.051802 0.187414 0.919370 0.345775
0.026773 -0.009011 -0.000517 0.923673 -0.379803 0.050569
-0.020853 0.060100 -0.072778 -0.540544 0.820002 -0.187994
-0.014162 0.023075 -0.138252 -0.087466 0.711814 -0.696860
0.012189 0.026213 -0.007081 0.339274 0.907041 0.249275
-0.011954 0.011027 -0.136287 0.123692 -0.752983 -0.646260
0.024445 0.014906 0.007969 0.866176 0.490646 0.094699
-0.015784 -0.029929 -0.073713 -0.835932 0.008576 -0.548723
-0.002604 0.000819 -0.092017 -0.287393 0.891781 -0.349376
-0.034954 -0.053700 -0.105576 -0.733543 -0.493942 -0.466750
-0.026583 0.000586 0.039958 -0.913022 0.084689 -0.398999
-0.025362 -0.006208 -0.140029 -0.839595 0.311899 -0.444716
-0.024018 -0.013071 -0.137451 -0.696738 -0.694205 -0.180486
0.015162 0.024361 0.009121 0.365825 0.926176 0.091128
-0.017086 0.056064 -0.080115 0.001648 0.102512 -0.994720
3 0 1 2
3 1 3 4
3 5 6 7
3 8 9 10
3 11 12 13
3 5 7 14
3 8 15 9
3 15 8 16
3 17 18 19
3 9 20 21
3 18 22 19
3 23 8 10
3 24 25 26
3 27 28 29
3 30 31 32
3 33 34 35
3 36 37 38
3 39 34 36
3 40 41 42
3 43 44 32
3 45 46 47
3 48 49 50
3 42 51 52
3 50 49 53
3 54 30 55
3 24 33 25
3 56 57 26
3 58 59 54
3 47 46 0
3 40 4 3
3 60 61 62
3 5 28 27
3 39 36 4
3 4 63 64
3 61 57 55
3 58 57 56
3 53 44 43
3 65 64 66
3 67 49 68
3 67 32 44
3 5 27 60
3 5 45 6
3 55 32 67
3 55 30 32
3 69 70 0
3 71 1 0
3 72 45 62
3 73 74 70
3 13 12 75
3 37 23 38
3 76 70 77
3 68 49 48
3 13 23 37
3 33 24 34
3 48 78 40
3 79 40 71
3 0 2 47
3 6 21 80
3 51 81 52
3 41 40 78
3 82 75 12
3 12 83 8
3 84 30 64
3 30 33 35
3 85 28 5
3 11 83 12
3 86 77 87
3 87 40 88
3 64 39 4
3 30 35 64
3 89 29 28
3 85 89 28
3 79 71 70
3 70 71 0
3 90 66 43
3 30 84 31
3 91 56 26
3 33 92 93
3 36 38 22
3 36 94 4
3 59 56 95
3 59 58 56
3 84 64 65
3 96 90 31
3 77 68 48
3 61 68 62
3 24 97 34
3 26 97 24
3 55 67 61
3 67 68 61
3 66 98 65
3 96 65 98
3 34 99 36
3 97 99 34
3 1 71 3
3 71 40 3
3 30 54 33
3 54 92 33
3 100 77 70
3 100 68 77
3 22 10 19
3 17 19 10
3 42 52 63
3 101 52 81
3 76 77 86
3 40 79 88
3 60 62 45
3 45 5 60
3 79 76 88
3 76 79 70
3 43 66 53
3 63 52 101
3 73 70 69
3 102 72 74
3 103 15 16
3 85 83 89
3 44 49 67
3 49 44 53
3 45 72 46
3 72 102 46
3 40 87 48
3 77 48 87
3 66 63 53
3 63 66 64
3 62 68 100
3 74 72 62
3 81 51 104
3 101 81 50
3 26 29 89
3 89 97 26
3 2 1 22
3 22 94 36
3 41 78 105
3 81 104 50
3 74 62 100
3 100 70 74
3 9 21 18
3 21 6 2
3 57 29 26
3 61 29 57
3 13 75 23
3 23 75 82
3 9 17 10
3 17 9 18
3 78 48 50
3 50 104 78
3 64 35 39
3 35 34 39
3 90 96 98
3 90 98 66
3 4 42 63
3 40 42 4
3 47 2 6
3 47 6 45
3 90 43 31
3 31 43 32
3 11 13 106
3 106 13 99
3 59 107 54
3 107 59 95
3 106 99 97
3 106 97 89
3 4 94 1
3 22 1 94
3 20 80 21
3 80 15 103
3 51 41 105
3 41 51 42
3 23 82 8
3 82 12 8
3 105 78 104
3 104 51 105
3 15 80 20
3 15 20 9
3 11 89 83
3 89 11 106
3 76 86 88
3 88 86 87
3 23 10 38
3 38 10 22
3 92 95 93
3 91 26 93
3 69 0 46
3 46 102 69
3 13 37 99
3 99 37 36
3 95 92 107
3 54 107 92
3 80 103 7
3 6 80 7
3 63 101 53
3 50 53 101
3 58 54 55
3 55 57 58
3 7 103 14
3 103 16 85
3 102 74 73
3 102 73 69
3 2 18 21
3 18 2 22
3 14 85 5
3 103 85 14
3 25 33 93
3 25 93 26
3 16 8 83
3 85 16 83
3 96 31 84
3 84 65 96
3 56 91 95
3 93 95 91
3 61 60 27
3 61 27 29
